PathFileType	4	(X/Y/Z)	9_coords_data.trc
DataRate	CameraRate	NumFrames	NumMarkers	Units	OrigDataRate	OrigDataStartFrame	OrigNumFrames
30.0	30.0	5	21	m	30.0	19	47
Frame#	Time	THUMB_TIP	THUMB_IP	THUMB_MCP	THUMB_CMC	INDEX_TIP	INDEX_DIP	INDEX_PIP	INDEX_MCP	MIDDLE_TIP	MIDDLE_DIP	MIDDLE_PIP	MIDDLE_MCP	RING_TIP	RING_DIP	RING_PIP	RING_MCP	PINKY_TIP	PINKY_DIP	PINKY_PIP	PINKY_MCP	WRIST
X1	Y1	Z1	X2	Y2	Z2	X3	Y3	Z3	X4	Y4	Z4	X5	Y5	Z5	X6	Y6	Z6	X7	Y7	Z7	X8	Y8	Z8	X9	Y9	Z9	X10	Y10	Z10	X11	Y11	Z11	X12	Y12	Z12	X13	Y13	Z13	X14	Y14	Z14	X15	Y15	Z15	X16	Y16	Z16	X17	Y17	Z17	X18	Y18	Z18	X19	Y19	Z19	X20	Y20	Z20	X21	Y21	Z21
18	0.6	-0.03886130142211914	-0.08341570281982422	1.0243499755859375	-0.03714459991455078	-0.06031719970703125	1.038550048828125	-0.04005459976196289	-0.042862998962402345	1.0631099853515624	-0.04493140029907226	-0.012194600105285645	1.0868299560546875	-0.01900779914855957	-0.01287619972229004	1.0548199462890624	-0.015441900253295898	-0.012902400016784669	1.0358800048828125	-0.021577999114990233	-0.01586489963531494	1.0126500244140626	-0.055738498687744144	-0.026326900482177736	1.027969970703125	-0.033444000244140626	-0.004528810024261474	1.0658800048828125	-0.021475099563598634	0.002929739952087402	1.0508499755859375	-0.020104700088500977	0.006195340156555176	1.0221699829101563	-0.06072840118408203	-0.003167890071868896	1.02527001953125	-0.04218249893188476	0.007206930160522461	1.0729200439453126	-0.028190299987792967	0.017175100326538087	1.0596500244140625	-0.02532069969177246	0.026263200759887695	1.0338900146484375	-0.06478700256347657	0.01904549980163574	1.0340899658203124	-0.04316019821166992	0.0199862003326416	1.0736300048828125	-0.031795700073242186	0.03229439926147461	1.062800048828125	-0.03443439865112305	0.04300299835205078	1.0471099853515624	-0.06629109954833984	0.03849459838867188	1.0478499755859374	-0.075910400390625	0.00047684100270271304	1.112469970703125
19	0.6333333333333333	-0.03608489990234375	-0.08229309844970703	1.023280029296875	-0.035237598419189456	-0.05964410018920899	1.0380400390625	-0.039083599090576175	-0.04277399826049805	1.062989990234375	-0.04446920013427735	-0.012351099967956542	1.0871099853515624	-0.017968900680541994	-0.012605199813842774	1.0548599853515626	-0.014096500396728516	-0.012732999801635742	1.0353599853515625	-0.02085300064086914	-0.01596609973907471	1.01225	-0.05493090057373047	-0.026409400939941406	1.02772998046875	-0.03253760147094727	-0.004349180221557617	1.06593994140625	-0.020327199935913087	0.003168550014495849	1.050510009765625	-0.019533700942993164	0.006295609951019287	1.0216699829101563	-0.06001779937744141	-0.003264219999313354	1.0251800537109375	-0.04109540176391602	0.00717959976196289	1.073010009765625	-0.02738859939575195	0.017447999954223633	1.0594000244140624	-0.02499130058288574	0.026482500076293946	1.033469970703125	-0.06432869720458985	0.018863000869750977	1.034010009765625	-0.04237960052490235	0.02004789924621582	1.0733699951171876	-0.03147450065612793	0.03263420104980469	1.0623800048828125	-0.03467850112915039	0.043262001037597655	1.046760009765625	-0.06630629730224609	0.03819369888305664	1.04772998046875	-0.07616510009765624	-0.000504689991474151	1.1121500244140625
20	0.6666666666666666	-0.027856700897216796	-0.07719740295410156	1.02027001953125	-0.02975379943847656	-0.05584579849243164	1.03675	-0.03636930084228516	-0.04117829895019531	1.0625	-0.043882198333740234	-0.012335800170898437	1.087219970703125	-0.01235700035095215	-0.01019089984893799	1.0530400390625	-0.010769100189208984	-0.01101550006866455	1.033699951171875	-0.01919449996948242	-0.01485319995880127	1.0113300170898438	-0.05301020050048828	-0.025722999572753907	1.0273399658203124	-0.027995000839233397	-0.0029745700359344483	1.066780029296875	-0.01717970085144043	0.004809840202331543	1.049510009765625	-0.018495599746704103	0.007702340126037597	1.0204299926757812	-0.05858399963378906	-0.002653879880905151	1.0248199462890626	-0.03735490036010742	0.007993629932403564	1.07377001953125	-0.025078899383544923	0.01882080078125	1.05868994140625	-0.024622499465942384	0.027961000442504883	1.0324000244140625	-0.06349480056762695	0.019229200363159178	1.0339300537109375	-0.039669998168945314	0.020854999542236328	1.0736600341796876	-0.029896400451660157	0.03415359878540039	1.061530029296875	-0.03519029998779297	0.04459469985961914	1.0462900390625	-0.0664729995727539	0.03834870147705078	1.0482099609375	-0.07646499633789063	-0.001225460052490234	1.11181005859375
21	0.7	-0.021642799377441405	-0.07169000244140625	1.0184000244140625	-0.025376699447631837	-0.051725601196289064	1.03602001953125	-0.0339379997253418	-0.03919609832763672	1.06243994140625	-0.04298040008544922	-0.01179640007019043	1.0877099609375	-0.0034736099243164063	-0.00526869010925293	1.0506199951171875	-0.005359029769897461	-0.007565139770507812	1.03147998046875	-0.016255699157714843	-0.01255970001220703	1.010780029296875	-0.04981159973144531	-0.02399410057067871	1.0270899658203125	-0.01753700065612793	0.0013826299905776971	1.0671700439453125	-0.01090410041809082	0.008449430465698243	1.04827001953125	-0.016393800735473633	0.010231200218200684	1.0191900024414062	-0.05617530059814453	-0.001055879950523376	1.0247900390625	-0.02941659927368164	0.011383999824523925	1.0753699951171876	-0.020467500686645507	0.022114099502563475	1.05797998046875	-0.023901599884033203	0.03071660041809082	1.030800048828125	-0.06210979843139648	0.02053339958190918	1.03402001953125	-0.03415230178833008	0.02417919921875	1.0728399658203125	-0.028006900787353517	0.037546600341796875	1.0604100341796876	-0.03591659927368164	0.04735699844360351	1.04572998046875	-0.06642829895019531	0.03917940139770508	1.048760009765625	-0.07709940338134766	-0.001865389943122863	1.111030029296875
22	0.7333333333333333	-0.015634799957275392	-0.06658149719238281	1.0176500244140625	-0.021453100204467772	-0.04811320114135742	1.0362900390625	-0.03195549964904785	-0.03746049880981445	1.0628599853515626	-0.04313249969482422	-0.012385700225830078	1.0888800048828124	0.006533010005950928	-0.000116798996925354	1.045969970703125	-0.00021916499733924802	-0.004161520004272461	1.0274200439453125	-0.014146400451660155	-0.010353400230407714	1.0099000244140626	-0.04740290069580078	-0.022361200332641603	1.0273199462890625	-0.0056803498268127445	0.006571119785308838	1.0651700439453125	-0.004183869838714599	0.012204700469970704	1.044010009765625	-0.015177000045776367	0.012869099617004394	1.0167999877929688	-0.05452099990844726	0.000583343029022216	1.0250400390625	-0.016998699188232422	0.016482599258422853	1.07506005859375	-0.013975099563598633	0.02627079963684082	1.056199951171875	-0.023215999603271486	0.033529098510742185	1.028760009765625	-0.060851200103759766	0.021888900756835937	1.034300048828125	-0.026469499588012695	0.027964799880981446	1.071550048828125	-0.02575830078125	0.04107720184326172	1.05902001953125	-0.03627939987182617	0.04996709823608399	1.0455799560546875	-0.06607980346679687	0.040268798828125	1.0498599853515624	-0.07776409912109375	-0.002286659955978393	1.1111800537109375
